<svg width="57" height="17" viewBox="0 0 57 17" fill="none" xmlns="http://www.w3.org/2000/svg">
<path fill-rule="evenodd" clip-rule="evenodd" d="M8.84375 7.06894L12.0437 0.668945H16.8438L8.84375 16.6689L0.84375 0.668945H7.24375L6.05975 3.06895H8.84375V7.06894ZM33.0635 0.668945H29.162L27.0105 8.6841H26.8893L24.7453 0.668945H20.8438L24.8287 12.3053H29.0711L33.0635 0.668945ZM33.8476 12.3053H43.84V9.42652H38.6582V9.35076L43.6582 2.98713V0.668945H34.037V3.54773H39.2415V3.62349L33.8476 10.1917V12.3053ZM52.4574 13.4189C51.8135 15.3205 50.4878 16.6689 47.8211 16.6689C46.9347 16.6689 46.109 16.525 45.5484 16.2977L46.3665 13.6083C47.4574 13.9644 48.2605 13.9492 48.6165 13.078L48.7605 12.7296L44.6241 0.668945H48.5029L50.6468 8.97198H50.7681L52.9423 0.668945L56.8438 0.676521L52.4574 13.4189Z" fill="white"/>
</svg>
